Coordinates
version=1
nRows=38
nColumns=34
inDegrees=no

Units are S.I. units (second, meters, Newtons, ...)
If the header above contains a line with 'inDegrees', this indicates whether rotational values are in degrees (yes) or radians (no).

endheader
time	pelvis_tilt	pelvis_list	pelvis_rotation	pelvis_tx	pelvis_ty	pelvis_tz	hip_flexion_r	hip_adduction_r	hip_rotation_r	knee_angle_r	ankle_angle_r	subtalar_angle_r	mtp_angle_r	hip_flexion_l	hip_adduction_l	hip_rotation_l	knee_angle_l	ankle_angle_l	subtalar_angle_l	mtp_angle_l	lumbar_extension	lumbar_bending	lumbar_rotation	arm_flex_r	arm_add_r	arm_rot_r	elbow_flex_r	pro_sup_r	arm_flex_l	arm_add_l	arm_rot_l	elbow_flex_l	pro_sup_l
3.34	-0.432395	0.0692726	-0.0504631	-0.278399	0.841201	-0.546311	1.09102	-0.142618	-0.0231556	0.955746	0.48116	0.0147473	-0.00241763	1.08841	-0.296106	-0.178126	0.969322	0.223764	0.0771593	-0.00241763	-0.245392	0.0163352	0.0119986	1.3815	-0.155767	0.273073	1.5461	2.09	1.33122	-0.113026	0.0828517	1.52319	2.06046
3.35	-0.443758	0.070316	-0.0489433	-0.281991	0.836127	-0.546241	1.11714	-0.143039	-0.0198385	0.972733	0.484261	0.00102829	-0.00241763	1.11374	-0.297614	-0.173174	0.983973	0.224798	0.0664236	-0.00241763	-0.249874	0.0168001	0.011459	1.40552	-0.151646	0.279182	1.56826	2.09	1.34893	-0.109651	0.0838443	1.55007	2.06504
3.36	-0.454774	0.071678	-0.0477435	-0.285449	0.831181	-0.546169	1.14217	-0.143417	-0.0159475	0.988701	0.488585	-0.0113848	-0.00241763	1.138	-0.299235	-0.169061	0.998013	0.22608	0.0557775	-0.00241763	-0.254312	0.0167573	0.0116231	1.42827	-0.148455	0.28506	1.59027	2.09	1.36538	-0.105969	0.0857754	1.57648	2.06802
3.37	-0.465656	0.0732246	-0.0469004	-0.288805	0.826365	-0.54607	1.16638	-0.143441	-0.0115796	1.00359	0.493308	-0.0236348	-0.00241763	1.16148	-0.301038	-0.165473	1.01135	0.227094	0.0454395	-0.00241763	-0.258626	0.0162803	0.0121222	1.4499	-0.145626	0.290865	1.61171	2.09	1.38064	-0.102704	0.0880563	1.60267	2.07325
3.38	-0.476564	0.0743645	-0.0460394	-0.29204	0.821626	-0.54592	1.19017	-0.142737	-0.00718558	1.01798	0.497239	-0.0374188	-0.00241763	1.18475	-0.303029	-0.161391	1.02421	0.227637	0.0357385	-0.00241763	-0.262536	0.0160949	0.0123658	1.47031	-0.142483	0.296829	1.63215	2.09	1.39478	-0.100678	0.0909029	1.62868	2.08007
3.39	-0.487074	0.074953	-0.0448255	-0.295114	0.816978	-0.545775	1.21331	-0.142016	-0.00346366	1.03243	0.500202	-0.0513953	-0.00241763	1.2075	-0.304723	-0.156411	1.03677	0.227921	0.0258615	-0.00241763	-0.266249	0.0165611	0.0124545	1.48947	-0.139427	0.302974	1.65152	2.09	1.40783	-0.0987196	0.0942022	1.65388	2.08398
3.4	-0.496574	0.0752151	-0.0435568	-0.298008	0.8125	-0.545664	1.23493	-0.14176	-0.000451428	1.04669	0.503086	-0.0630387	-0.00241763	1.22898	-0.306286	-0.151293	1.04912	0.22794	0.0154199	-0.00241763	-0.270434	0.0173488	0.0130357	1.50776	-0.137639	0.309662	1.67003	2.09	1.41979	-0.0955807	0.097726	1.67781	2.08433
3.41	-0.505275	0.0753599	-0.0424319	-0.300739	0.808177	-0.545574	1.25505	-0.14184	0.00233803	1.06032	0.506096	-0.072279	-0.00241763	1.24941	-0.30795	-0.146475	1.06133	0.2275	0.00468373	-0.00241763	-0.27501	0.0180772	0.0137248	1.52529	-0.136754	0.3169	1.68759	2.09	1.43085	-0.0923141	0.101459	1.70079	2.08681
3.42	-0.513791	0.0757329	-0.0408173	-0.30334	0.803903	-0.545574	1.27485	-0.142835	0.0051389	1.07384	0.508305	-0.0813267	-0.00241763	1.26948	-0.308531	-0.141278	1.07325	0.225976	-0.00758064	-0.00241763	-0.279239	0.0186784	0.0133633	1.54176	-0.135484	0.32398	1.70408	2.09	1.44115	-0.0904264	0.105671	1.72334	2.09
3.43	-0.521719	0.0765081	-0.038686	-0.305807	0.799677	-0.545667	1.29425	-0.144734	0.00820095	1.08769	0.510246	-0.0910014	-0.00241763	1.28865	-0.307907	-0.135751	1.08493	0.224554	-0.0199538	-0.00241763	-0.283439	0.0190972	0.0124703	1.55701	-0.134152	0.330487	1.7199	2.09	1.4508	-0.0895219	0.110857	1.74497	2.09
3.44	-0.528784	0.0771254	-0.0370694	-0.308143	0.795509	-0.545684	1.31259	-0.145731	0.0118265	1.10137	0.511705	-0.102658	-0.00241763	1.30684	-0.308128	-0.130589	1.09685	0.223099	-0.0320369	-0.00241763	-0.287985	0.0194921	0.0126625	1.57125	-0.133677	0.33684	1.73561	2.09	1.45986	-0.0882897	0.116632	1.76513	2.09
3.45	-0.535316	0.0771151	-0.0364508	-0.310366	0.791365	-0.54554	1.32993	-0.144966	0.0157549	1.11455	0.512198	-0.115948	-0.00241763	1.32459	-0.310196	-0.125612	1.10923	0.221836	-0.0432297	-0.00241763	-0.292685	0.0201238	0.0139345	1.5848	-0.133683	0.343616	1.75116	2.09	1.46835	-0.0866427	0.121809	1.78467	2.09
3.46	-0.54169	0.0768504	-0.0362825	-0.312504	0.787235	-0.545367	1.34692	-0.143778	0.0193822	1.12753	0.512038	-0.1288	-0.00241763	1.34212	-0.312832	-0.120383	1.12167	0.220572	-0.0541578	-0.00241763	-0.297185	0.0208664	0.015277	1.59787	-0.133844	0.350862	1.76582	2.09	1.47643	-0.0855838	0.126449	1.80389	2.09
3.47	-0.548061	0.0766962	-0.0364887	-0.314584	0.783135	-0.545196	1.36379	-0.142665	0.0225756	1.14032	0.512344	-0.139763	-0.00241763	1.35945	-0.315705	-0.115266	1.13391	0.218986	-0.0650033	-0.00241763	-0.301324	0.0212638	0.0172089	1.61035	-0.134933	0.358034	1.7792	2.09	1.48429	-0.085115	0.132393	1.82195	2.09
3.48	-0.554495	0.0763698	-0.0373525	-0.316596	0.779055	-0.544917	1.38037	-0.140832	0.0254609	1.15272	0.51342	-0.149624	-0.00241763	1.3768	-0.319685	-0.110361	1.14616	0.217136	-0.0750662	-0.00241763	-0.305028	0.0213727	0.0203504	1.62198	-0.136965	0.364797	1.79179	2.09	1.49181	-0.0843964	0.139551	1.83853	2.09
3.49	-0.560888	0.0756792	-0.0386701	-0.318519	0.774991	-0.544538	1.39655	-0.138292	0.0280511	1.16481	0.514393	-0.159838	-0.00241763	1.39419	-0.324576	-0.105179	1.15854	0.215219	-0.0844988	-0.00241763	-0.308409	0.0215799	0.0236051	1.63283	-0.138834	0.371621	1.80417	2.09	1.49886	-0.0841596	0.14621	1.85447	2.09
3.5	-0.567223	0.0748617	-0.0402326	-0.320393	0.770957	-0.544117	1.41253	-0.135436	0.0304528	1.17664	0.514533	-0.170735	-0.00241763	1.4114	-0.329511	-0.099527	1.17072	0.213164	-0.0945967	-0.00241763	-0.311549	0.0216732	0.0261336	1.64308	-0.140456	0.378935	1.81633	2.09	1.50588	-0.0855951	0.152615	1.87007	2.09
3.51	-0.573632	0.0740744	-0.0418678	-0.322274	0.766957	-0.54365	1.42845	-0.132453	0.0326646	1.18803	0.514087	-0.181794	-0.00241763	1.42842	-0.334027	-0.0934891	1.1823	0.211036	-0.105617	-0.00241763	-0.314405	0.0213243	0.0283787	1.65273	-0.142621	0.38628	1.82819	2.09	1.51328	-0.0877199	0.159663	1.88458	2.09
3.52	-0.580047	0.0733219	-0.0430898	-0.324138	0.763003	-0.543203	1.44415	-0.130106	0.0343444	1.19904	0.513578	-0.192532	-0.00241763	1.44518	-0.337754	-0.0870684	1.19328	0.209262	-0.116122	-0.00241763	-0.317158	0.0209062	0.0304997	1.6622	-0.14515	0.393278	1.8398	2.09	1.52085	-0.0891546	0.166657	1.89783	2.09
3.53	-0.586283	0.0727007	-0.0436368	-0.325931	0.759093	-0.542878	1.45949	-0.129028	0.0354608	1.20988	0.513023	-0.202866	-0.00241763	1.46148	-0.340434	-0.0804094	1.20392	0.207858	-0.125608	-0.00241763	-0.319962	0.0208379	0.0319922	1.67186	-0.147386	0.400423	1.85046	2.09	1.52822	-0.0905914	0.173182	1.91035	2.09
3.54	-0.592367	0.072365	-0.0436833	-0.327645	0.75521	-0.542666	1.47456	-0.128851	0.0367171	1.2207	0.512414	-0.212851	-0.00241763	1.47719	-0.342151	-0.0741467	1.21419	0.206636	-0.135876	-0.00241763	-0.322585	0.0209325	0.0326676	1.68115	-0.149591	0.408131	1.85954	2.09	1.53511	-0.093299	0.179871	1.92227	2.09
3.55	-0.598437	0.072399	-0.0434841	-0.329287	0.751377	-0.542521	1.48947	-0.128997	0.0386546	1.2314	0.512193	-0.222196	-0.00241763	1.49221	-0.343226	-0.069051	1.22378	0.206111	-0.148296	-0.00241763	-0.324855	0.0208858	0.0330418	1.68969	-0.152451	0.416309	1.86767	2.09	1.54132	-0.0970785	0.186473	1.93358	2.09
3.56	-0.604516	0.0725886	-0.0432569	-0.330871	0.747623	-0.542415	1.50414	-0.129221	0.0408104	1.24177	0.512443	-0.230911	-0.00241763	1.50673	-0.344209	-0.0647713	1.23288	0.206288	-0.161227	-0.00241763	-0.326913	0.0208073	0.0336967	1.69802	-0.15578	0.424598	1.87567	2.09	1.54693	-0.100875	0.192121	1.94453	2.09
3.57	-0.61057	0.0725092	-0.0431606	-0.332413	0.743919	-0.54228	1.5185	-0.12915	0.0426392	1.2518	0.512585	-0.239826	-0.00241763	1.52132	-0.345703	-0.0600592	1.24205	0.205906	-0.172142	-0.00241763	-0.328802	0.020903	0.0349073	1.70627	-0.159028	0.432274	1.88346	2.09	1.55222	-0.104087	0.197255	1.95492	2.09
3.58	-0.616631	0.0721509	-0.0433303	-0.333918	0.740232	-0.542048	1.53265	-0.128274	0.0445768	1.2616	0.512089	-0.24976	-0.00241763	1.53607	-0.347998	-0.0548874	1.25138	0.204741	-0.181042	-0.00241763	-0.330427	0.0209906	0.0369841	1.71397	-0.162728	0.439341	1.89088	2.09	1.55731	-0.106849	0.203094	1.96407	2.09
3.59	-0.622644	0.0719001	-0.0437704	-0.335358	0.736617	-0.541745	1.54655	-0.12675	0.0470392	1.27114	0.511092	-0.260036	-0.00241763	1.55027	-0.350873	-0.0504193	1.26032	0.204383	-0.189237	-0.00241763	-0.331923	0.0207858	0.0396176	1.72124	-0.167436	0.447093	1.89796	2.09	1.56219	-0.109783	0.209499	1.97213	2.09
3.6	-0.628446	0.0719217	-0.0443761	-0.336732	0.733136	-0.541422	1.56004	-0.125232	0.0495532	1.28029	0.509954	-0.269434	-0.00241763	1.56347	-0.353965	-0.0469845	1.26857	0.205578	-0.196833	-0.00241763	-0.333486	0.0202285	0.0418021	1.7283	-0.172222	0.455979	1.90429	2.09	1.56679	-0.113088	0.214948	1.97973	2.09
3.61	-0.634025	0.07219	-0.0452745	-0.338086	0.729745	-0.541081	1.57337	-0.123774	0.0518725	1.28925	0.508459	-0.278824	-0.00241763	1.57604	-0.35736	-0.0440705	1.27641	0.207136	-0.203851	-0.00241763	-0.335012	0.0192578	0.0435538	1.73506	-0.17624	0.464771	1.90961	2.09	1.5711	-0.116147	0.218925	1.98682	2.09
3.62	-0.639494	0.0724634	-0.0464582	-0.339421	0.726388	-0.540736	1.58666	-0.12221	0.0540701	1.29815	0.506903	-0.288621	-0.00241763	1.58858	-0.36124	-0.0411821	1.28433	0.208307	-0.210297	-0.00241763	-0.336395	0.0181005	0.0456398	1.74148	-0.180048	0.472639	1.91445	2.09	1.57522	-0.118741	0.222768	1.99317	2.09
3.63	-0.645066	0.0719914	-0.047294	-0.340684	0.723092	-0.540432	1.59945	-0.121031	0.0553504	1.30662	0.50467	-0.298069	-0.00241763	1.60163	-0.365044	-0.0374845	1.29231	0.208902	-0.216158	-0.00241763	-0.337533	0.017721	0.0478959	1.7475	-0.184407	0.480185	1.91956	2.09	1.57917	-0.121135	0.227078	1.99923	2.09
3.64	-0.650607	0.0705751	-0.0472018	-0.341877	0.719914	-0.540207	1.61132	-0.120883	0.055392	1.3145	0.501798	-0.305882	-0.00241763	1.61492	-0.367778	-0.0325748	1.29996	0.209119	-0.221439	-0.00241763	-0.338634	0.0187061	0.0495776	1.75344	-0.18927	0.488352	1.92474	2.09	1.58268	-0.123306	0.230624	2.00536	2.09
3.65	-0.655727	0.0693837	-0.0464291	-0.343066	0.716839	-0.540054	1.62278	-0.121543	0.0558421	1.32239	0.498991	-0.31312	-0.00241763	1.62751	-0.369278	-0.0276298	1.30713	0.208978	-0.226773	-0.00241763	-0.340093	0.0199951	0.0504892	1.75984	-0.19412	0.497071	1.92924	2.09	1.58583	-0.125582	0.233145	2.01132	2.09
3.66	-0.660387	0.0692263	-0.0454757	-0.344236	0.713869	-0.539923	1.63427	-0.122316	0.0579405	1.33053	0.496794	-0.320954	-0.00241763	1.63899	-0.370261	-0.0237311	1.31395	0.20838	-0.232013	-0.00241763	-0.341969	0.0202865	0.0509903	1.76632	-0.198853	0.505319	1.93348	2.09	1.58909	-0.128364	0.23613	2.01687	2.09
3.67	-0.66479	0.0694719	-0.0440599	-0.345313	0.711073	-0.539829	1.64534	-0.123437	0.0607319	1.33846	0.494966	-0.328978	-0.00241763	1.64975	-0.370645	-0.0203852	1.32038	0.207056	-0.23679	-0.00241763	-0.344085	0.0199036	0.0511083	1.77214	-0.204032	0.512801	1.93834	2.09	1.59257	-0.130966	0.24002	2.0219	2.09
3.68	-0.668689	0.0697842	-0.0414486	-0.346337	0.70847	-0.539871	1.6555	-0.126109	0.0633356	1.34608	0.493595	-0.33618	-0.00241763	1.65964	-0.369326	-0.017265	1.32621	0.204866	-0.24193	-0.00241763	-0.346826	0.0196307	0.0501183	1.77779	-0.209746	0.520245	1.94339	2.09	1.59633	-0.132762	0.243511	2.02623	2.09
3.69	-0.672105	0.0705076	-0.0383882	-0.347407	0.705914	-0.539953	1.66521	-0.129563	0.0661168	1.35367	0.492716	-0.342758	-0.00241763	1.66883	-0.367241	-0.0147149	1.33184	0.202102	-0.248187	-0.00241763	-0.350194	0.0192428	0.0486292	1.78413	-0.215302	0.527854	1.94795	2.09	1.60049	-0.134328	0.245854	2.0301	2.09
3.7	-0.67603	0.0711193	-0.0372597	-0.348509	0.703214	-0.539737	1.67535	-0.130311	0.0689631	1.36089	0.49156	-0.350019	-0.00241763	1.67905	-0.367962	-0.0120588	1.3382	0.199388	-0.254626	-0.00241763	-0.35273	0.0183484	0.0494213	1.79049	-0.220724	0.535311	1.95239	2.09	1.60444	-0.136146	0.24793	2.03399	2.09
3.71	-0.68083	0.0712524	-0.0385878	-0.349567	0.70044	-0.539165	1.6859	-0.127436	0.0714995	1.36728	0.489636	-0.358194	-0.00241763	1.69059	-0.37219	-0.00885534	1.34511	0.19708	-0.260255	-0.00241763	-0.353799	0.0168128	0.0530201	1.79591	-0.226652	0.542775	1.95712	2.09	1.60768	-0.137935	0.250773	2.03782	2.09
